<svg id="Layer_1" data-name="Layer 1" xmlns="http://www.w3.org/2000/svg" xmlns:xlink="http://www.w3.org/1999/xlink" viewBox="0 0 60.36258 21.32099"><defs><style>.cls-1{fill:none;stroke-miterlimit:10;stroke-width:3px;stroke:url(#linear-gradient);}</style><linearGradient id="linear-gradient" x1="19.56451" y1="10.11046" x2="60.36258" y2="10.11046" gradientUnits="userSpaceOnUse"><stop offset="0" stop-color="#00ff87"/><stop offset="1" stop-color="#60efff"/></linearGradient></defs><polyline class="cls-1" points="21.065 6.905 21.065 1.5 58.836 1.5 58.86 18.721 52.507 18.721"/><path d="M0,6.51679H5.21c4.89258,0,8.36572,3.00781,8.36572,7.26465S10.10254,21.06708,5.21,21.06708H0Zm5.6123,11.7124a4.447,4.447,0,1,0,0-8.874h-2.499v8.874Z"/><path d="M25.6084,14.52265v6.54443H22.62207V19.96552A4.34955,4.34955,0,0,1,19.40283,21.321c-2.32959,0-4.12988-1.39746-4.12988-3.49414,0-2.16065,2.01172-3.64307,4.55322-3.64307a7.907,7.907,0,0,1,2.7959.55078v-.21191c0-1.16455-.72021-2.18115-2.52051-2.18115a6.263,6.263,0,0,0-2.83789.7832l-1.0376-2.0542a10.04643,10.04643,0,0,1,4.57471-1.207A4.45361,4.45361,0,0,1,25.6084,14.52265Zm-2.98633,3.09228v-1.0166A6.92125,6.92125,0,0,0,20.271,16.196c-1.12256,0-2.01172.65625-2.01172,1.5459s.7832,1.44043,1.84228,1.44043A2.38081,2.38081,0,0,0,22.62207,17.61493Z"/><path d="M27.38916,19.66913,28.72363,17.53a6.22769,6.22769,0,0,0,3.66407,1.22852c.82568,0,1.41894-.33887,1.41894-.82617,0-.67774-.80469-.88916-1.92725-1.18555-2.24511-.55078-3.98193-1.165-4.00293-3.32519-.021-2.07569,1.69434-3.55811,4.27833-3.55811a7.96247,7.96247,0,0,1,4.32031,1.35547l-1.24951,2.20264a6.19817,6.19817,0,0,0-3.0708-.97461c-.7627,0-1.292.27539-1.292.65673,0,.59327.44483.76221,1.92725,1.165,1.88476.48682,3.98193,1.12256,3.98193,3.51563,0,2.16015-1.7583,3.53662-4.44775,3.53662A8.09573,8.09573,0,0,1,27.38916,19.66913Z"/><path d="M49.249,14.09931v6.96777H46.2627V14.75556A2.08612,2.08612,0,0,0,44.186,12.46845a2.17915,2.17915,0,0,0-2.28711,2.11768v6.481H38.80664V6.26288h3.09229v5.189A4.1076,4.1076,0,0,1,49.249,14.09931Z"/></svg>