<?xml version="1.0" encoding="utf-8"?>
<!-- Generator: Adobe Illustrator 24.2.3, SVG Export Plug-In . SVG Version: 6.00 Build 0)  -->
<svg version="1.1" id="Layer_1" xmlns="http://www.w3.org/2000/svg" xmlns:xlink="http://www.w3.org/1999/xlink" x="0px" y="0px"
	 viewBox="0 0 60.4 21.3" style="enable-background:new 0 0 60.4 21.3;" xml:space="preserve">
<style type="text/css">
	.st0{fill:none;stroke:url(#SVGID_1_);stroke-width:3;stroke-miterlimit:10;}
	.st1{fill:#FFFFFF;}
</style>
<linearGradient id="SVGID_1_" gradientUnits="userSpaceOnUse" x1="19.565" y1="13.8895" x2="60.3621" y2="13.8895" gradientTransform="matrix(1 0 0 -1 0 24)">
	<stop  offset="0" style="stop-color:#00FF87"/>
	<stop  offset="1" style="stop-color:#60EFFF"/>
</linearGradient>
<polyline class="st0" points="21.1,6.9 21.1,1.5 58.8,1.5 58.9,18.7 52.5,18.7 "/>
<path class="st1" d="M0,6.5h5.2c4.9,0,8.4,3,8.4,7.3s-3.5,7.3-8.4,7.3H0V6.5z M5.6,18.2c2.5,0.2,4.6-1.7,4.7-4.1
	c0.2-2.5-1.7-4.6-4.1-4.7c-0.2,0-0.4,0-0.6,0H3.1v8.9H5.6z"/>
<path class="st1" d="M25.6,14.5v6.5h-3V20c-0.8,0.9-2,1.4-3.2,1.4c-2.3,0-4.1-1.4-4.1-3.5c0-2.2,2-3.6,4.6-3.6c1,0,1.9,0.2,2.8,0.6
	v-0.2c0-1.2-0.7-2.2-2.5-2.2c-1,0-2,0.3-2.8,0.8l-1-2.1c1.4-0.8,3-1.2,4.6-1.2c2.5-0.2,4.6,1.6,4.8,4.1
	C25.6,14.1,25.6,14.3,25.6,14.5z M22.6,17.6v-1c-0.8-0.3-1.6-0.4-2.4-0.4c-1.1,0-2,0.7-2,1.5s0.8,1.4,1.8,1.4
	C21.2,19.3,22.3,18.7,22.6,17.6z"/>
<path class="st1" d="M27.4,19.7l1.3-2.1c1.1,0.8,2.3,1.2,3.7,1.2c0.8,0,1.4-0.3,1.4-0.8c0-0.7-0.8-0.9-1.9-1.2c-2.2-0.6-4-1.2-4-3.3
	c0-2.1,1.7-3.6,4.3-3.6c1.5,0,3,0.5,4.3,1.4l-1.2,2.2c-0.9-0.6-2-0.9-3.1-1c-0.8,0-1.3,0.3-1.3,0.7c0,0.6,0.4,0.8,1.9,1.2
	c1.9,0.5,4,1.1,4,3.5c0,2.2-1.8,3.5-4.4,3.5C30.5,21.3,28.8,20.7,27.4,19.7z"/>
<path class="st1" d="M49.2,14.1v7h-3v-6.3c0.1-1.1-0.7-2.2-1.9-2.3c-0.1,0-0.1,0-0.2,0c-1.2-0.1-2.2,0.9-2.3,2.1c0,0,0,0,0,0v6.5
	h-3.1V6.3h3.1v5.2c1.4-1.8,4-2.1,5.8-0.7C48.7,11.5,49.3,12.8,49.2,14.1z"/>
</svg>
