<svg id="Layer_1" data-name="Layer 1" xmlns="http://www.w3.org/2000/svg" xmlns:xlink="http://www.w3.org/1999/xlink" viewBox="0 0 796.28 592.3">
    <defs>
        <style>
            .cls-1, .cls-9 {
            fill: none;
            }

            .cls-2 {
            clip-path: url(#clip-path);
            }

            .cls-3 {
            fill: #6900c7;
            }

            .cls-4 {
            fill: #4f18d2;
            }

            .cls-5 {
            fill: #3531dd;
            }

            .cls-6 {
            fill: #1a49e7;
            }

            .cls-7 {
            fill: #0061f2;
            }

            .cls-8 {
            clip-path: url(#clip-path-6);
            }

            .cls-9 {
            stroke: #000;
            stroke-miterlimit: 10;
            stroke-width: 8.37px;
            }
        </style>
        <clipPath id="clip-path" transform="translate(-65.43 -1)">
            <rect id="SVGID" class="cls-1" y="1" width="927.13" height="600"/>
        </clipPath>
        <clipPath id="clip-path-6" transform="translate(-65.43 -1)">
            <rect class="cls-1" x="67.13" y="469.59" width="297.51" height="76.11"/>
        </clipPath>
    </defs>
    <title>PupilPay-purple-card</title>
    <g>
        <g class="cls-2">
            <polygon class="cls-3" points="796.28 0 796.28 592.3 709.3 538.81 709.3 0 796.28 0"/>
        </g>
        <g class="cls-2">
            <polygon class="cls-4" points="619.24 0 619.24 483.39 531.88 429.89 531.88 0 619.24 0"/>
        </g>
        <g class="cls-2">
            <polygon class="cls-5" points="441.82 0 441.82 374.47 354.46 320.98 354.46 0 441.82 0"/>
        </g>
        <g class="cls-2">
            <polygon class="cls-6" points="264.4 0 264.4 265.56 177.42 211.67 177.42 0 264.4 0"/>
        </g>
        <g class="cls-2">
            <polygon class="cls-7" points="87.36 0 87.36 156.64 0 102.76 0 0 87.36 0"/>
        </g>
    </g>
    <g class="cls-8">
        <g class="cls-8">
            <path d="M67.13,489.72H86.44c9.49,0,16.59,6.07,16.59,14.72s-7.1,14.73-16.59,14.73H75.2v14.91H67.13Zm18.41,22c5.48,0,9.29-2.78,9.29-7.3s-3.81-7.29-9.29-7.29H75.2v14.59Z" transform="translate(-65.43 -1)"/>
            <path d="M139.59,500.7v33.38h-7.87v-4.45a12.43,12.43,0,0,1-10.34,5.23c-7.29,0-12.39-5.36-12.39-12.92V500.7h7.61v19.69c0,4.52,2.91,7.75,7,7.75s7.56-2.78,8.08-6.33V500.7Z" transform="translate(-65.43 -1)"/>
            <path d="M183.25,517.36c0,10.27-6.45,17.5-15.3,17.5a13.69,13.69,0,0,1-11.62-6.07v16.4h-7.88V500.7h7.88V506A13.67,13.67,0,0,1,168,499.92c8.85,0,15.3,7.24,15.3,17.44m-7.81,0c0-6.26-4-10.72-9.62-10.72s-9.43,4.46-9.43,10.72,3.88,10.78,9.43,10.78,9.62-4.52,9.62-10.78" transform="translate(-65.43 -1)"/>
            <path d="M189.85,491.14a4.49,4.49,0,0,1,9,0,4.49,4.49,0,1,1-9,0m.52,9.56h7.87v33.38h-7.87Z" transform="translate(-65.43 -1)"/>
            <rect x="141.54" y="487.95" width="7.88" height="45.14"/>
            <path d="M223.82,489.72h19.31c9.49,0,16.59,6.07,16.59,14.72s-7.1,14.73-16.59,14.73H231.89v14.91h-8.07Zm18.4,22c5.49,0,9.3-2.78,9.3-7.3s-3.81-7.29-9.3-7.29H231.89v14.59Z" transform="translate(-65.43 -1)"/>
            <path d="M294.67,514v20.08H287v-4a13.69,13.69,0,0,1-10.52,4.78c-7.11,0-12.46-4.2-12.46-10.66s6.13-11.1,13.62-11.1a26.79,26.79,0,0,1,9.36,1.8V514c0-3.87-2.13-7.62-8.2-7.62a20.47,20.47,0,0,0-9,2.52L267,503.41a30.13,30.13,0,0,1,13.3-3.49c8.85,0,14.34,5.62,14.34,14.08M287,523.62v-3.74a25.36,25.36,0,0,0-8.2-1.29c-3.94,0-7.1,2.19-7.1,5.35s2.78,5.17,6.52,5.17,7.88-1.94,8.78-5.49" transform="translate(-65.43 -1)"/>
            <path d="M302.68,544l1.68-5.68a9.53,9.53,0,0,0,4.26,1.23,4.49,4.49,0,0,0,4.27-2.2l1.42-3L300.17,500.7h8.33l9.75,24.92,9.16-24.92h8.14l-14.14,35.71c-2.52,6.32-6.39,9.23-11.43,9.3a16,16,0,0,1-7.3-1.75" transform="translate(-65.43 -1)"/>
            <polyline class="cls-9" points="202.97 488.73 202.97 472.78 294.96 472.78 294.96 525.34 274.98 525.34"/>
        </g>
    </g>
</svg>
